# Blender 4.4.3
# www.blender.org
mtllib BEam ATK_beam2.mtl
o Cylinder
v 0.000000 1.061672 0.400000
v 0.000000 1.061672 3.078845
v 0.207122 1.041273 0.400000
v 0.207122 1.041273 3.078845
v 0.406284 0.980857 0.400000
v 0.406284 0.980857 3.078845
v 0.589833 0.882749 0.400000
v 0.589833 0.882748 3.078845
v 0.750714 0.750716 0.400000
v 0.750714 0.750716 3.078845
v 0.882747 0.589834 0.400000
v 0.882747 0.589834 3.078845
v 0.980856 0.406285 0.400000
v 0.980856 0.406285 3.078845
v 1.041271 0.207123 0.400000
v 1.041271 0.207123 3.078845
v 1.061671 0.000002 0.400000
v 1.061671 0.000002 3.078845
v 1.041271 -0.207120 0.400000
v 1.041271 -0.207120 3.078845
v 0.980856 -0.406282 0.400000
v 0.980856 -0.406282 3.078845
v 0.882747 -0.589831 0.400000
v 0.882747 -0.589831 3.078845
v 0.750714 -0.750713 0.400000
v 0.750714 -0.750713 3.078845
v 0.589833 -0.882745 0.400000
v 0.589833 -0.882745 3.078845
v 0.406284 -0.980854 0.400000
v 0.406284 -0.980854 3.078845
v 0.207122 -1.041269 0.400000
v 0.207122 -1.041269 3.078845
v 0.000000 -1.061669 0.400000
v 0.000000 -1.061669 3.078845
v -0.207122 -1.041269 0.400000
v -0.207122 -1.041269 3.078845
v -0.406284 -0.980854 0.400000
v -0.406284 -0.980854 3.078845
v -0.589833 -0.882745 0.400000
v -0.589833 -0.882745 3.078845
v -0.750714 -0.750713 0.400000
v -0.750714 -0.750713 3.078845
v -0.882747 -0.589831 0.400000
v -0.882747 -0.589831 3.078845
v -0.980856 -0.406282 0.400000
v -0.980856 -0.406282 3.078845
v -1.041271 -0.207120 0.400000
v -1.041271 -0.207120 3.078845
v -1.061671 0.000002 0.400000
v -1.061671 0.000002 3.078845
v -1.041271 0.207123 0.400000
v -1.041271 0.207123 3.078845
v -0.980856 0.406285 0.400000
v -0.980856 0.406285 3.078845
v -0.882747 0.589834 0.400000
v -0.882747 0.589834 3.078845
v -0.750714 0.750716 0.400000
v -0.750714 0.750716 3.078845
v -0.589833 0.882749 0.400000
v -0.589833 0.882748 3.078845
v -0.406284 0.980857 0.400000
v -0.406284 0.980857 3.078845
v -0.207122 1.041273 0.400000
v -0.207122 1.041273 3.078845
v 0.000000 0.924185 0.000000
v 0.180299 0.906427 0.000000
v 0.353670 0.853836 0.000000
v 0.513449 0.768432 0.000000
v 0.653496 0.653498 0.000000
v 0.768430 0.513451 0.000000
v 0.853834 0.353671 0.000000
v 0.906425 0.180301 0.000000
v 0.924183 0.000002 0.000000
v 0.906425 -0.180297 0.000000
v 0.853834 -0.353668 0.000000
v 0.768430 -0.513447 0.000000
v 0.653496 -0.653494 0.000000
v 0.513449 -0.768429 0.000000
v 0.353670 -0.853832 0.000000
v 0.180299 -0.906424 0.000000
v 0.000000 -0.924182 0.000000
v -0.180299 -0.906424 0.000000
v -0.353670 -0.853832 0.000000
v -0.513449 -0.768429 0.000000
v -0.653496 -0.653494 0.000000
v -0.768430 -0.513447 0.000000
v -0.853834 -0.353668 0.000000
v -0.906425 -0.180297 0.000000
v -0.924183 0.000002 0.000000
v -0.906425 0.180301 0.000000
v -0.853834 0.353671 0.000000
v -0.768430 0.513451 0.000000
v -0.653496 0.653498 0.000000
v -0.513449 0.768432 0.000000
v -0.353670 0.853836 0.000000
v -0.180299 0.906427 0.000000
v -0.000000 1.250798 1.069711
v 0.000000 1.061672 1.739423
v -0.000000 1.235728 2.409134
v 0.241078 1.211984 2.409134
v 0.207122 1.041273 1.739423
v 0.244018 1.226764 1.069711
v 0.472892 1.141664 2.409134
v 0.406284 0.980857 1.739423
v 0.478659 1.155587 1.069711
v 0.686533 1.027470 2.409134
v 0.589833 0.882748 1.739423
v 0.694905 1.040001 1.069711
v 0.873790 0.873792 2.409134
v 0.750714 0.750716 1.739423
v 0.884446 0.884448 1.069711
v 1.027469 0.686534 2.409134
v 0.882747 0.589834 1.739423
v 1.039999 0.694907 1.069711
v 1.141662 0.472894 2.409134
v 0.980856 0.406285 1.739423
v 1.155585 0.478661 1.069711
v 1.211982 0.241080 2.409134
v 1.041271 0.207123 1.739423
v 1.226763 0.244020 1.069711
v 1.235726 0.000002 2.409134
v 1.061671 0.000002 1.739423
v 1.250796 0.000002 1.069711
v 1.211982 -0.241077 2.409134
v 1.041271 -0.207120 1.739423
v 1.226763 -0.244016 1.069711
v 1.141662 -0.472890 2.409134
v 0.980856 -0.406282 1.739422
v 1.155585 -0.478657 1.069711
v 1.027469 -0.686531 2.409134
v 0.882747 -0.589831 1.739422
v 1.039999 -0.694903 1.069711
v 0.873790 -0.873789 2.409134
v 0.750714 -0.750713 1.739422
v 0.884446 -0.884445 1.069711
v 0.686533 -1.027467 2.409134
v 0.589833 -0.882745 1.739422
v 0.694905 -1.039997 1.069711
v 0.472892 -1.141660 2.409134
v 0.406284 -0.980854 1.739422
v 0.478659 -1.155583 1.069711
v 0.241078 -1.211980 2.409134
v 0.207122 -1.041269 1.739422
v 0.244018 -1.226761 1.069711
v -0.000000 -1.235725 2.409134
v 0.000000 -1.061669 1.739422
v -0.000000 -1.250795 1.069711
v -0.241078 -1.211980 2.409134
v -0.207122 -1.041269 1.739422
v -0.244018 -1.226761 1.069711
v -0.472892 -1.141660 2.409134
v -0.406284 -0.980854 1.739422
v -0.478659 -1.155583 1.069711
v -0.686533 -1.027467 2.409134
v -0.589833 -0.882745 1.739422
v -0.694905 -1.039997 1.069711
v -0.873790 -0.873789 2.409134
v -0.750714 -0.750713 1.739422
v -0.884446 -0.884445 1.069711
v -1.027469 -0.686531 2.409134
v -0.882747 -0.589831 1.739422
v -1.039999 -0.694903 1.069711
v -1.141662 -0.472890 2.409134
v -0.980856 -0.406282 1.739422
v -1.155585 -0.478657 1.069711
v -1.211982 -0.241077 2.409134
v -1.041271 -0.207120 1.739423
v -1.226763 -0.244016 1.069711
v -1.235726 0.000002 2.409134
v -1.061671 0.000002 1.739423
v -1.250796 0.000002 1.069711
v -1.211982 0.241080 2.409134
v -1.041271 0.207123 1.739423
v -1.226763 0.244020 1.069711
v -1.141662 0.472894 2.409134
v -0.980856 0.406285 1.739423
v -1.155585 0.478661 1.069711
v -1.027469 0.686534 2.409134
v -0.882747 0.589834 1.739423
v -1.039999 0.694907 1.069711
v -0.873790 0.873792 2.409134
v -0.750714 0.750716 1.739423
v -0.884446 0.884448 1.069711
v -0.686533 1.027470 2.409134
v -0.589833 0.882748 1.739423
v -0.694905 1.040001 1.069711
v -0.472892 1.141664 2.409134
v -0.406284 0.980857 1.739423
v -0.478659 1.155587 1.069711
v -0.241078 1.211984 2.409134
v -0.207122 1.041273 1.739423
v -0.244018 1.226764 1.069711
vn -0.0000 0.9546 -0.2980
vn -0.0000 0.9678 0.2515
vn 0.1862 0.9362 -0.2980
vn 0.1888 0.9492 0.2515
vn 0.3653 0.8819 -0.2980
vn 0.3704 0.8942 0.2515
vn 0.5303 0.7937 -0.2980
vn 0.5377 0.8047 0.2515
vn 0.6750 0.6750 -0.2980
vn 0.6844 0.6844 0.2515
vn 0.7937 0.5303 -0.2980
vn 0.8047 0.5377 0.2515
vn 0.8819 0.3653 -0.2980
vn 0.8942 0.3704 0.2515
vn 0.9362 0.1862 -0.2980
vn 0.9492 0.1888 0.2515
vn 0.9546 -0.0000 -0.2980
vn 0.9678 -0.0000 0.2515
vn 0.9362 -0.1862 -0.2980
vn 0.9492 -0.1888 0.2515
vn 0.8819 -0.3653 -0.2980
vn 0.8942 -0.3704 0.2515
vn 0.7937 -0.5303 -0.2980
vn 0.8047 -0.5377 0.2515
vn 0.6750 -0.6750 -0.2980
vn 0.6844 -0.6844 0.2515
vn 0.5303 -0.7937 -0.2980
vn 0.5377 -0.8047 0.2515
vn 0.3653 -0.8819 -0.2980
vn 0.3704 -0.8942 0.2515
vn 0.1862 -0.9362 -0.2980
vn 0.1888 -0.9492 0.2515
vn -0.0000 -0.9546 -0.2980
vn -0.0000 -0.9678 0.2515
vn -0.1862 -0.9362 -0.2980
vn -0.1888 -0.9492 0.2515
vn -0.3653 -0.8819 -0.2980
vn -0.3704 -0.8942 0.2515
vn -0.5303 -0.7937 -0.2980
vn -0.5377 -0.8047 0.2515
vn -0.6750 -0.6750 -0.2980
vn -0.6844 -0.6844 0.2515
vn -0.7937 -0.5303 -0.2980
vn -0.8047 -0.5377 0.2515
vn -0.8819 -0.3653 -0.2980
vn -0.8942 -0.3704 0.2515
vn -0.9362 -0.1862 -0.2980
vn -0.9492 -0.1888 0.2515
vn -0.9546 -0.0000 -0.2980
vn -0.9678 -0.0000 0.2515
vn -0.9362 0.1862 -0.2980
vn -0.9492 0.1888 0.2515
vn -0.8819 0.3653 -0.2980
vn -0.8942 0.3704 0.2515
vn -0.7937 0.5303 -0.2980
vn -0.8047 0.5377 0.2515
vn -0.6750 0.6750 -0.2980
vn -0.6844 0.6844 0.2515
vn -0.5303 0.7937 -0.2980
vn -0.5377 0.8047 0.2515
vn -0.3653 0.8819 -0.2980
vn -0.3704 0.8942 0.2515
vn -0.1862 0.9362 -0.2980
vn -0.1888 0.9492 0.2515
vn -0.0000 0.9457 -0.3251
vn 0.1845 0.9275 -0.3251
vn 0.3619 0.8737 -0.3251
vn 0.5254 0.7863 -0.3251
vn 0.6687 0.6687 -0.3251
vn 0.7863 0.5254 -0.3251
vn 0.8737 0.3619 -0.3251
vn 0.9275 0.1845 -0.3251
vn 0.9457 -0.0000 -0.3251
vn 0.9275 -0.1845 -0.3251
vn 0.8737 -0.3619 -0.3251
vn 0.7863 -0.5254 -0.3251
vn 0.6687 -0.6687 -0.3251
vn 0.5254 -0.7863 -0.3251
vn 0.3619 -0.8737 -0.3251
vn 0.1845 -0.9275 -0.3251
vn -0.0000 -0.9457 -0.3251
vn -0.1845 -0.9275 -0.3251
vn -0.3619 -0.8737 -0.3251
vn -0.5254 -0.7863 -0.3251
vn -0.6687 -0.6687 -0.3251
vn -0.7863 -0.5254 -0.3251
vn -0.8737 -0.3619 -0.3251
vn -0.9275 -0.1845 -0.3251
vn -0.9457 -0.0000 -0.3251
vn -0.9275 0.1845 -0.3251
vn -0.8737 0.3619 -0.3251
vn -0.7863 0.5254 -0.3251
vn -0.6687 0.6687 -0.3251
vn -0.5254 0.7863 -0.3251
vn -0.3619 0.8737 -0.3251
vn -0.1845 0.9275 -0.3251
vn -0.0000 1.0000 -0.0000
vn -0.0000 0.9999 0.0107
vn 0.1951 0.9808 -0.0000
vn 0.1951 0.9807 0.0107
vn 0.3827 0.9239 -0.0000
vn 0.3827 0.9238 0.0107
vn 0.5556 0.8315 -0.0000
vn 0.5555 0.8314 0.0107
vn 0.7071 0.7071 -0.0000
vn 0.7071 0.7071 0.0107
vn 0.8315 0.5556 -0.0000
vn 0.8314 0.5555 0.0107
vn 0.9239 0.3827 -0.0000
vn 0.9238 0.3827 0.0107
vn 0.9808 0.1951 -0.0000
vn 0.9807 0.1951 0.0107
vn 1.0000 -0.0000 -0.0000
vn 0.9999 -0.0000 0.0107
vn 0.9808 -0.1951 -0.0000
vn 0.9807 -0.1951 0.0107
vn 0.9239 -0.3827 -0.0000
vn 0.9238 -0.3827 0.0107
vn 0.8315 -0.5556 -0.0000
vn 0.8314 -0.5555 0.0107
vn 0.7071 -0.7071 -0.0000
vn 0.7071 -0.7071 0.0107
vn 0.5556 -0.8315 -0.0000
vn 0.5555 -0.8314 0.0107
vn 0.3827 -0.9239 -0.0000
vn 0.3827 -0.9238 0.0107
vn 0.1951 -0.9808 -0.0000
vn 0.1951 -0.9807 0.0107
vn -0.0000 -1.0000 -0.0000
vn -0.0000 -0.9999 0.0107
vn -0.1951 -0.9808 -0.0000
vn -0.1951 -0.9807 0.0107
vn -0.3827 -0.9239 -0.0000
vn -0.3827 -0.9238 0.0107
vn -0.5556 -0.8315 -0.0000
vn -0.5555 -0.8314 0.0107
vn -0.7071 -0.7071 -0.0000
vn -0.7071 -0.7071 0.0107
vn -0.8315 -0.5556 -0.0000
vn -0.8314 -0.5555 0.0107
vn -0.9239 -0.3827 -0.0000
vn -0.9238 -0.3827 0.0107
vn -0.9808 -0.1951 -0.0000
vn -0.9807 -0.1951 0.0107
vn -1.0000 -0.0000 -0.0000
vn -0.9999 -0.0000 0.0107
vn -0.9808 0.1951 -0.0000
vn -0.9807 0.1951 0.0107
vn -0.9239 0.3827 -0.0000
vn -0.9238 0.3827 0.0107
vn -0.8315 0.5556 -0.0000
vn -0.8314 0.5555 0.0107
vn -0.7071 0.7071 -0.0000
vn -0.7071 0.7071 0.0107
vn -0.5556 0.8315 -0.0000
vn -0.5555 0.8314 0.0107
vn -0.3827 0.9239 -0.0000
vn -0.3827 0.9238 0.0107
vn -0.1951 0.9808 -0.0000
vn -0.1951 0.9807 0.0107
vt 1.000000 0.875000
vt 1.000000 1.000000
vt 0.968750 1.000000
vt 0.968750 0.875000
vt 0.937500 1.000000
vt 0.937500 0.875000
vt 0.906250 1.000000
vt 0.906250 0.875000
vt 0.875000 1.000000
vt 0.875000 0.875000
vt 0.843750 1.000000
vt 0.843750 0.875000
vt 0.812500 1.000000
vt 0.812500 0.875000
vt 0.781250 1.000000
vt 0.781250 0.875000
vt 0.750000 1.000000
vt 0.750000 0.875000
vt 0.718750 1.000000
vt 0.718750 0.875000
vt 0.687500 1.000000
vt 0.687500 0.875000
vt 0.656250 1.000000
vt 0.656250 0.875000
vt 0.625000 1.000000
vt 0.625000 0.875000
vt 0.593750 1.000000
vt 0.593750 0.875000
vt 0.562500 1.000000
vt 0.562500 0.875000
vt 0.531250 1.000000
vt 0.531250 0.875000
vt 0.500000 1.000000
vt 0.500000 0.875000
vt 0.468750 1.000000
vt 0.468750 0.875000
vt 0.437500 1.000000
vt 0.437500 0.875000
vt 0.406250 1.000000
vt 0.406250 0.875000
vt 0.375000 1.000000
vt 0.375000 0.875000
vt 0.343750 1.000000
vt 0.343750 0.875000
vt 0.312500 1.000000
vt 0.312500 0.875000
vt 0.281250 1.000000
vt 0.281250 0.875000
vt 0.250000 1.000000
vt 0.250000 0.875000
vt 0.218750 1.000000
vt 0.218750 0.875000
vt 0.187500 1.000000
vt 0.187500 0.875000
vt 0.156250 1.000000
vt 0.156250 0.875000
vt 0.125000 1.000000
vt 0.125000 0.875000
vt 0.093750 1.000000
vt 0.093750 0.875000
vt 0.062500 1.000000
vt 0.062500 0.875000
vt 0.031250 1.000000
vt 0.031250 0.875000
vt 0.000000 1.000000
vt 0.000000 0.875000
vt 0.812500 0.500000
vt 0.781250 0.500000
vt 0.531250 0.500000
vt 0.500000 0.500000
vt 0.250000 0.500000
vt 0.218750 0.500000
vt 0.937500 0.500000
vt 0.906250 0.500000
vt 0.656250 0.500000
vt 0.625000 0.500000
vt 0.375000 0.500000
vt 0.343750 0.500000
vt 0.093750 0.500000
vt 0.062500 0.500000
vt 0.750000 0.500000
vt 0.468750 0.500000
vt 0.187500 0.500000
vt 0.875000 0.500000
vt 0.593750 0.500000
vt 0.312500 0.500000
vt 0.031250 0.500000
vt 0.718750 0.500000
vt 0.437500 0.500000
vt 0.156250 0.500000
vt 0.843750 0.500000
vt 0.562500 0.500000
vt 0.281250 0.500000
vt 1.000000 0.500000
vt 0.968750 0.500000
vt 0.000000 0.500000
vt 0.687500 0.500000
vt 0.406250 0.500000
vt 0.125000 0.500000
vt 0.031250 0.625000
vt 0.000000 0.625000
vt 0.031250 0.750000
vt 0.000000 0.750000
vt 0.062500 0.625000
vt 0.062500 0.750000
vt 0.093750 0.625000
vt 0.093750 0.750000
vt 0.125000 0.625000
vt 0.125000 0.750000
vt 0.156250 0.625000
vt 0.156250 0.750000
vt 0.187500 0.625000
vt 0.187500 0.750000
vt 0.218750 0.625000
vt 0.218750 0.750000
vt 0.250000 0.625000
vt 0.250000 0.750000
vt 0.281250 0.625000
vt 0.281250 0.750000
vt 0.312500 0.625000
vt 0.312500 0.750000
vt 0.343750 0.625000
vt 0.343750 0.750000
vt 0.375000 0.625000
vt 0.375000 0.750000
vt 0.406250 0.625000
vt 0.406250 0.750000
vt 0.437500 0.625000
vt 0.437500 0.750000
vt 0.468750 0.625000
vt 0.468750 0.750000
vt 0.500000 0.625000
vt 0.500000 0.750000
vt 0.531250 0.625000
vt 0.531250 0.750000
vt 0.562500 0.625000
vt 0.562500 0.750000
vt 0.593750 0.625000
vt 0.593750 0.750000
vt 0.625000 0.625000
vt 0.625000 0.750000
vt 0.656250 0.625000
vt 0.656250 0.750000
vt 0.687500 0.625000
vt 0.687500 0.750000
vt 0.718750 0.625000
vt 0.718750 0.750000
vt 0.750000 0.625000
vt 0.750000 0.750000
vt 0.781250 0.625000
vt 0.781250 0.750000
vt 0.812500 0.625000
vt 0.812500 0.750000
vt 0.843750 0.625000
vt 0.843750 0.750000
vt 0.875000 0.625000
vt 0.875000 0.750000
vt 0.906250 0.625000
vt 0.906250 0.750000
vt 0.937500 0.625000
vt 0.937500 0.750000
vt 0.968750 0.625000
vt 0.968750 0.750000
vt 1.000000 0.625000
vt 1.000000 0.750000
s 1
f 99/1/97 2/2/2 4/3/4 100/4/99
f 100/4/99 4/3/4 6/5/6 103/6/101
f 103/6/101 6/5/6 8/7/8 106/8/103
f 106/8/103 8/7/8 10/9/10 109/10/105
f 109/10/105 10/9/10 12/11/12 112/12/107
f 112/12/107 12/11/12 14/13/14 115/14/109
f 115/14/109 14/13/14 16/15/16 118/16/111
f 118/16/111 16/15/16 18/17/18 121/18/113
f 121/18/113 18/17/18 20/19/20 124/20/115
f 124/20/115 20/19/20 22/21/22 127/22/117
f 127/22/117 22/21/22 24/23/24 130/24/119
f 130/24/119 24/23/24 26/25/26 133/26/121
f 133/26/121 26/25/26 28/27/28 136/28/123
f 136/28/123 28/27/28 30/29/30 139/30/125
f 139/30/125 30/29/30 32/31/32 142/32/127
f 142/32/127 32/31/32 34/33/34 145/34/129
f 145/34/129 34/33/34 36/35/36 148/36/131
f 148/36/131 36/35/36 38/37/38 151/38/133
f 151/38/133 38/37/38 40/39/40 154/40/135
f 154/40/135 40/39/40 42/41/42 157/42/137
f 157/42/137 42/41/42 44/43/44 160/44/139
f 160/44/139 44/43/44 46/45/46 163/46/141
f 163/46/141 46/45/46 48/47/48 166/48/143
f 166/48/143 48/47/48 50/49/50 169/50/145
f 169/50/145 50/49/50 52/51/52 172/52/147
f 172/52/147 52/51/52 54/53/54 175/54/149
f 175/54/149 54/53/54 56/55/56 178/56/151
f 178/56/151 56/55/56 58/57/58 181/58/153
f 181/58/153 58/57/58 60/59/60 184/60/155
f 184/60/155 60/59/60 62/61/62 187/62/157
f 187/62/157 62/61/62 64/63/64 190/64/159
f 190/64/159 64/63/64 2/65/2 99/66/97
f 13/67/13 15/68/15 72/68/72 71/67/71
f 31/69/31 33/70/33 81/70/81 80/69/80
f 49/71/49 51/72/51 90/72/90 89/71/89
f 5/73/5 7/74/7 68/74/68 67/73/67
f 23/75/23 25/76/25 77/76/77 76/75/76
f 41/77/41 43/78/43 86/78/86 85/77/85
f 59/79/59 61/80/61 95/80/95 94/79/94
f 15/68/15 17/81/17 73/81/73 72/68/72
f 33/70/33 35/82/35 82/82/82 81/70/81
f 51/72/51 53/83/53 91/83/91 90/72/90
f 7/74/7 9/84/9 69/84/69 68/74/68
f 25/76/25 27/85/27 78/85/78 77/76/77
f 43/78/43 45/86/45 87/86/87 86/78/86
f 61/80/61 63/87/63 96/87/96 95/80/95
f 17/81/17 19/88/19 74/88/74 73/81/73
f 35/82/35 37/89/37 83/89/83 82/82/82
f 53/83/53 55/90/55 92/90/92 91/83/91
f 9/84/9 11/91/11 70/91/70 69/84/69
f 27/85/27 29/92/29 79/92/79 78/85/78
f 45/86/45 47/93/47 88/93/88 87/86/87
f 1/94/1 3/95/3 66/95/66 65/94/65
f 63/87/63 1/96/1 65/96/65 96/87/96
f 19/88/19 21/97/21 75/97/75 74/88/74
f 37/89/37 39/98/39 84/98/84 83/89/83
f 55/90/55 57/99/57 93/99/93 92/90/92
f 11/91/11 13/67/13 71/67/71 70/91/70
f 29/92/29 31/69/31 80/69/80 79/92/79
f 47/93/47 49/71/49 89/71/89 88/93/88
f 3/95/3 5/73/5 67/73/67 66/95/66
f 21/97/21 23/75/23 76/75/76 75/97/75
f 39/98/39 41/77/41 85/77/85 84/98/84
f 57/99/57 59/79/59 94/79/94 93/99/93
f 63/87/63 192/100/159 97/101/97 1/96/1
f 192/100/159 191/102/160 98/103/98 97/101/97
f 191/102/160 190/64/159 99/66/97 98/103/98
f 61/80/61 189/104/157 192/100/159 63/87/63
f 189/104/157 188/105/158 191/102/160 192/100/159
f 188/105/158 187/62/157 190/64/159 191/102/160
f 59/79/59 186/106/155 189/104/157 61/80/61
f 186/106/155 185/107/156 188/105/158 189/104/157
f 185/107/156 184/60/155 187/62/157 188/105/158
f 57/99/57 183/108/153 186/106/155 59/79/59
f 183/108/153 182/109/154 185/107/156 186/106/155
f 182/109/154 181/58/153 184/60/155 185/107/156
f 55/90/55 180/110/151 183/108/153 57/99/57
f 180/110/151 179/111/152 182/109/154 183/108/153
f 179/111/152 178/56/151 181/58/153 182/109/154
f 53/83/53 177/112/149 180/110/151 55/90/55
f 177/112/149 176/113/150 179/111/152 180/110/151
f 176/113/150 175/54/149 178/56/151 179/111/152
f 51/72/51 174/114/147 177/112/149 53/83/53
f 174/114/147 173/115/148 176/113/150 177/112/149
f 173/115/148 172/52/147 175/54/149 176/113/150
f 49/71/49 171/116/145 174/114/147 51/72/51
f 171/116/145 170/117/146 173/115/148 174/114/147
f 170/117/146 169/50/145 172/52/147 173/115/148
f 47/93/47 168/118/143 171/116/145 49/71/49
f 168/118/143 167/119/144 170/117/146 171/116/145
f 167/119/144 166/48/143 169/50/145 170/117/146
f 45/86/45 165/120/141 168/118/143 47/93/47
f 165/120/141 164/121/142 167/119/144 168/118/143
f 164/121/142 163/46/141 166/48/143 167/119/144
f 43/78/43 162/122/139 165/120/141 45/86/45
f 162/122/139 161/123/140 164/121/142 165/120/141
f 161/123/140 160/44/139 163/46/141 164/121/142
f 41/77/41 159/124/137 162/122/139 43/78/43
f 159/124/137 158/125/138 161/123/140 162/122/139
f 158/125/138 157/42/137 160/44/139 161/123/140
f 39/98/39 156/126/135 159/124/137 41/77/41
f 156/126/135 155/127/136 158/125/138 159/124/137
f 155/127/136 154/40/135 157/42/137 158/125/138
f 37/89/37 153/128/133 156/126/135 39/98/39
f 153/128/133 152/129/134 155/127/136 156/126/135
f 152/129/134 151/38/133 154/40/135 155/127/136
f 35/82/35 150/130/131 153/128/133 37/89/37
f 150/130/131 149/131/132 152/129/134 153/128/133
f 149/131/132 148/36/131 151/38/133 152/129/134
f 33/70/33 147/132/129 150/130/131 35/82/35
f 147/132/129 146/133/130 149/131/132 150/130/131
f 146/133/130 145/34/129 148/36/131 149/131/132
f 31/69/31 144/134/127 147/132/129 33/70/33
f 144/134/127 143/135/128 146/133/130 147/132/129
f 143/135/128 142/32/127 145/34/129 146/133/130
f 29/92/29 141/136/125 144/134/127 31/69/31
f 141/136/125 140/137/126 143/135/128 144/134/127
f 140/137/126 139/30/125 142/32/127 143/135/128
f 27/85/27 138/138/123 141/136/125 29/92/29
f 138/138/123 137/139/124 140/137/126 141/136/125
f 137/139/124 136/28/123 139/30/125 140/137/126
f 25/76/25 135/140/121 138/138/123 27/85/27
f 135/140/121 134/141/122 137/139/124 138/138/123
f 134/141/122 133/26/121 136/28/123 137/139/124
f 23/75/23 132/142/119 135/140/121 25/76/25
f 132/142/119 131/143/120 134/141/122 135/140/121
f 131/143/120 130/24/119 133/26/121 134/141/122
f 21/97/21 129/144/117 132/142/119 23/75/23
f 129/144/117 128/145/118 131/143/120 132/142/119
f 128/145/118 127/22/117 130/24/119 131/143/120
f 19/88/19 126/146/115 129/144/117 21/97/21
f 126/146/115 125/147/116 128/145/118 129/144/117
f 125/147/116 124/20/115 127/22/117 128/145/118
f 17/81/17 123/148/113 126/146/115 19/88/19
f 123/148/113 122/149/114 125/147/116 126/146/115
f 122/149/114 121/18/113 124/20/115 125/147/116
f 15/68/15 120/150/111 123/148/113 17/81/17
f 120/150/111 119/151/112 122/149/114 123/148/113
f 119/151/112 118/16/111 121/18/113 122/149/114
f 13/67/13 117/152/109 120/150/111 15/68/15
f 117/152/109 116/153/110 119/151/112 120/150/111
f 116/153/110 115/14/109 118/16/111 119/151/112
f 11/91/11 114/154/107 117/152/109 13/67/13
f 114/154/107 113/155/108 116/153/110 117/152/109
f 113/155/108 112/12/107 115/14/109 116/153/110
f 9/84/9 111/156/105 114/154/107 11/91/11
f 111/156/105 110/157/106 113/155/108 114/154/107
f 110/157/106 109/10/105 112/12/107 113/155/108
f 7/74/7 108/158/103 111/156/105 9/84/9
f 108/158/103 107/159/104 110/157/106 111/156/105
f 107/159/104 106/8/103 109/10/105 110/157/106
f 5/73/5 105/160/101 108/158/103 7/74/7
f 105/160/101 104/161/102 107/159/104 108/158/103
f 104/161/102 103/6/101 106/8/103 107/159/104
f 3/95/3 102/162/99 105/160/101 5/73/5
f 102/162/99 101/163/100 104/161/102 105/160/101
f 101/163/100 100/4/99 103/6/101 104/161/102
f 1/94/1 97/164/97 102/162/99 3/95/3
f 97/164/97 98/165/98 101/163/100 102/162/99
f 98/165/98 99/1/97 100/4/99 101/163/100
