# Blender 4.4.3
# www.blender.org
mtllib lIGHTNING bULLET MEsH.mtl
o Sphere
v 0.000000 0.118810 1.059493
v 0.000000 0.168993 0.209138
v 0.000000 0.084641 -0.712198
v 0.000000 0.155776 -0.985298
v 0.000000 -0.000000 1.700000
v 0.035020 0.113531 1.059493
v 0.083360 0.270246 0.283767
v 0.049811 0.161485 0.209138
v 0.024948 0.080881 -0.712198
v 0.045916 0.148856 -0.985298
v 0.066928 0.098165 1.059493
v 0.159313 0.233669 0.283767
v 0.095197 0.139628 0.209138
v 0.047680 0.069934 -0.712198
v 0.087752 0.128708 -0.985298
v 0.092889 0.074077 1.059493
v 0.221110 0.176329 0.283767
v 0.132124 0.105365 0.209138
v 0.066175 0.052773 -0.712198
v 0.121791 0.097125 -0.985298
v 0.110597 0.043406 1.059493
v 0.263261 0.103322 0.283767
v 0.157311 0.061740 0.209138
v 0.078790 0.030923 -0.712198
v 0.145008 0.056911 -0.985298
v 0.118478 0.008879 1.059493
v 0.282019 0.021134 0.283767
v 0.168520 0.012629 0.209138
v 0.084404 0.006325 -0.712198
v 0.155341 0.011641 -0.985298
v 0.115831 -0.026438 1.059493
v 0.275720 -0.062931 0.283767
v 0.164756 -0.037604 0.209138
v 0.082519 -0.018834 -0.712198
v 0.151871 -0.034663 -0.985298
v 0.102892 -0.059405 1.059493
v 0.244921 -0.141405 0.283767
v 0.146352 -0.084496 0.209138
v 0.073301 -0.042320 -0.712198
v 0.134906 -0.077888 -0.985298
v 0.080811 -0.087094 1.059493
v 0.192360 -0.207315 0.283767
v 0.114944 -0.123880 0.209138
v 0.057570 -0.062046 -0.712198
v 0.105955 -0.114192 -0.985298
v 0.051550 -0.107044 1.059493
v 0.122707 -0.254803 0.283767
v 0.073323 -0.152257 0.209138
v 0.036724 -0.076259 -0.712198
v 0.067589 -0.140349 -0.985298
v 0.017708 -0.117483 1.059493
v 0.042151 -0.279652 0.283767
v 0.025187 -0.167105 0.209138
v 0.012615 -0.083696 -0.712198
v 0.023217 -0.154036 -0.985298
v -0.017708 -0.117483 1.059493
v -0.042151 -0.279652 0.283767
v -0.025187 -0.167105 0.209138
v -0.012615 -0.083696 -0.712198
v -0.023217 -0.154036 -0.985298
v -0.051550 -0.107044 1.059493
v -0.122707 -0.254803 0.283767
v -0.073323 -0.152257 0.209138
v -0.036724 -0.076259 -0.712198
v -0.067589 -0.140349 -0.985298
v -0.080811 -0.087094 1.059493
v -0.192360 -0.207315 0.283767
v -0.114944 -0.123880 0.209138
v -0.057570 -0.062046 -0.712198
v -0.105955 -0.114192 -0.985298
v -0.102892 -0.059405 1.059493
v -0.244921 -0.141405 0.283767
v -0.146352 -0.084496 0.209138
v -0.073301 -0.042320 -0.712198
v -0.134906 -0.077888 -0.985298
v -0.115831 -0.026438 1.059493
v -0.275720 -0.062931 0.283767
v -0.164756 -0.037604 0.209138
v -0.082519 -0.018834 -0.712198
v -0.151870 -0.034663 -0.985298
v -0.118478 0.008879 1.059493
v -0.282019 0.021135 0.283767
v -0.168520 0.012629 0.209138
v -0.084404 0.006325 -0.712198
v -0.155341 0.011641 -0.985298
v -0.110597 0.043406 1.059493
v -0.263261 0.103322 0.283767
v -0.157311 0.061740 0.209138
v -0.078790 0.030923 -0.712198
v -0.145008 0.056912 -0.985298
v -0.092889 0.074077 1.059493
v -0.221110 0.176329 0.283767
v -0.132124 0.105365 0.209138
v -0.066175 0.052773 -0.712198
v -0.121791 0.097125 -0.985298
v -0.066928 0.098165 1.059493
v -0.159313 0.233669 0.283767
v -0.095197 0.139628 0.209138
v -0.047680 0.069934 -0.712198
v -0.087752 0.128708 -0.985298
v -0.035020 0.113531 1.059493
v -0.083360 0.270246 0.283767
v -0.049811 0.161485 0.209138
v -0.024948 0.080881 -0.712198
v -0.045916 0.148856 -0.985298
v 0.000000 0.282810 0.283767
v 0.397907 -0.397907 -0.040736
v 0.397907 -0.397907 -0.012485
v 0.415207 -0.415207 -0.026611
v 0.000000 -0.562725 -0.040736
v 0.000000 -0.562725 -0.012485
v 0.000000 -0.587192 -0.026611
v -0.397907 -0.397907 -0.040736
v -0.397907 -0.397907 -0.012485
v -0.415207 -0.415207 -0.026611
v -0.562725 0.000000 -0.040736
v -0.562725 0.000000 -0.012485
v -0.587192 0.000000 -0.026610
v -0.397907 0.397907 -0.040736
v -0.397907 0.397907 -0.012485
v -0.415207 0.415207 -0.026610
v 0.000000 0.562725 -0.040736
v 0.000000 0.562725 -0.012485
v 0.000000 0.587192 -0.026610
v 0.397907 0.397907 -0.040736
v 0.397907 0.397907 -0.012485
v 0.415207 0.415207 -0.026610
v 0.562725 -0.000000 -0.040736
v 0.562725 -0.000000 -0.012485
v 0.587191 -0.000000 -0.026610
vn 0.1466 0.9726 0.1804
vn 0.1443 0.9576 0.2494
vn 0.1459 0.9679 0.2046
vn 0.0824 0.5465 -0.8334
vn 0.1484 0.9848 -0.0902
vn 0.4321 0.8973 -0.0902
vn 0.4268 0.8862 0.1804
vn 0.4202 0.8725 0.2494
vn 0.4247 0.8819 0.2046
vn 0.2398 0.4979 -0.8334
vn 0.6690 0.7210 0.1804
vn 0.6587 0.7099 0.2494
vn 0.6658 0.7175 0.2046
vn 0.3759 0.4051 -0.8334
vn 0.6774 0.7301 -0.0902
vn 0.8477 0.4894 0.2046
vn 0.4786 0.2763 -0.8334
vn 0.8625 0.4980 -0.0902
vn 0.8518 0.4918 0.1804
vn 0.8387 0.4842 0.2494
vn 0.5388 0.1230 -0.8334
vn 0.9710 0.2216 -0.0902
vn 0.9589 0.2189 0.1804
vn 0.9441 0.2155 0.2494
vn 0.9543 0.2178 0.2046
vn 0.9931 -0.0744 -0.0902
vn 0.9808 -0.0735 0.1804
vn 0.9657 -0.0724 0.2494
vn 0.9761 -0.0731 0.2046
vn 0.5511 -0.0413 -0.8334
vn 0.9156 -0.3593 0.1804
vn 0.9015 -0.3538 0.2494
vn 0.9112 -0.3576 0.2046
vn 0.5144 -0.2019 -0.8334
vn 0.9271 -0.3639 -0.0902
vn 0.7571 -0.6038 0.2494
vn 0.7653 -0.6103 0.2046
vn 0.4321 -0.3446 -0.8334
vn 0.7786 -0.6210 -0.0902
vn 0.7690 -0.6133 0.1804
vn 0.3113 -0.4566 -0.8334
vn 0.5610 -0.8229 -0.0902
vn 0.5541 -0.8127 0.1804
vn 0.5455 -0.8001 0.2494
vn 0.5514 -0.8088 0.2046
vn 0.2936 -0.9517 -0.0902
vn 0.2899 -0.9399 0.1804
vn 0.2854 -0.9254 0.2494
vn 0.2885 -0.9354 0.2046
vn 0.1629 -0.5281 -0.8334
vn -0.0000 -0.9959 -0.0902
vn -0.0000 -0.9836 0.1804
vn -0.0000 -0.9684 0.2494
vn -0.0000 -0.9788 0.2046
vn -0.0000 -0.5526 -0.8334
vn -0.2854 -0.9254 0.2494
vn -0.2885 -0.9354 0.2046
vn -0.1629 -0.5281 -0.8334
vn -0.2936 -0.9517 -0.0902
vn -0.2899 -0.9399 0.1804
vn -0.3113 -0.4566 -0.8334
vn -0.5610 -0.8229 -0.0902
vn -0.5541 -0.8127 0.1804
vn -0.5455 -0.8001 0.2494
vn -0.5514 -0.8088 0.2046
vn -0.4321 -0.3446 -0.8334
vn -0.7786 -0.6210 -0.0902
vn -0.7690 -0.6133 0.1804
vn -0.7571 -0.6038 0.2494
vn -0.7653 -0.6103 0.2046
vn -0.9271 -0.3639 -0.0902
vn -0.9156 -0.3593 0.1804
vn -0.9015 -0.3538 0.2494
vn -0.9112 -0.3576 0.2046
vn -0.5144 -0.2019 -0.8334
vn -0.9657 -0.0724 0.2494
vn -0.9761 -0.0731 0.2046
vn -0.5511 -0.0413 -0.8334
vn -0.9931 -0.0744 -0.0902
vn -0.9808 -0.0735 0.1804
vn -0.9543 0.2178 0.2046
vn -0.5388 0.1230 -0.8334
vn -0.9710 0.2216 -0.0902
vn -0.9589 0.2189 0.1804
vn -0.9441 0.2155 0.2494
vn -0.4786 0.2763 -0.8334
vn -0.8625 0.4980 -0.0902
vn -0.8518 0.4918 0.1804
vn -0.8387 0.4842 0.2494
vn -0.8477 0.4894 0.2046
vn -0.6774 0.7301 -0.0902
vn -0.6690 0.7210 0.1804
vn -0.6587 0.7099 0.2494
vn -0.6658 0.7175 0.2046
vn -0.3759 0.4051 -0.8334
vn -0.4268 0.8862 0.1804
vn -0.4202 0.8725 0.2494
vn -0.4247 0.8819 0.2046
vn -0.2398 0.4979 -0.8334
vn -0.4321 0.8973 -0.0902
vn -0.1459 0.9679 0.2046
vn -0.0824 0.5465 -0.8334
vn -0.1484 0.9848 -0.0902
vn -0.1466 0.9726 0.1804
vn -0.1443 0.9576 0.2494
vn 0.4896 -0.2028 -0.8480
vn -0.9239 0.3827 -0.0000
vn 0.4896 -0.2028 0.8480
vn 0.2028 -0.4896 -0.8480
vn -0.3827 0.9239 -0.0000
vn 0.2028 -0.4896 0.8480
vn -0.2028 -0.4896 -0.8480
vn 0.3827 0.9239 -0.0000
vn -0.2028 -0.4896 0.8480
vn -0.4896 -0.2028 -0.8480
vn 0.9239 0.3827 -0.0000
vn -0.4896 -0.2028 0.8480
vn -0.4896 0.2028 -0.8480
vn 0.9239 -0.3827 -0.0000
vn -0.4896 0.2028 0.8480
vn -0.2028 0.4896 -0.8480
vn 0.3827 -0.9239 -0.0000
vn -0.2028 0.4896 0.8480
vn 0.2028 0.4896 -0.8480
vn -0.3827 -0.9239 -0.0000
vn 0.2028 0.4896 0.8480
vn 0.4896 0.2028 -0.8480
vn -0.9239 -0.3827 -0.0000
vn 0.4896 0.2028 0.8480
vt 0.714286 0.909091
vt 0.690476 1.000000
vt 0.666667 0.909091
vt 0.714286 0.545455
vt 0.714286 0.636364
vt 0.666667 0.636364
vt 0.666667 0.545455
vt 0.714286 0.818182
vt 0.666667 0.818182
vt 0.714286 0.727273
vt 0.666667 0.727273
vt 0.619048 0.727273
vt 0.619048 0.636364
vt 0.642857 1.000000
vt 0.619048 0.909091
vt 0.619048 0.545455
vt 0.619048 0.818182
vt 0.595238 1.000000
vt 0.571429 0.909091
vt 0.571429 0.636364
vt 0.571429 0.545455
vt 0.571429 0.818182
vt 0.571429 0.727273
vt 0.523810 0.909091
vt 0.523810 0.818182
vt 0.523810 0.727273
vt 0.523810 0.636364
vt 0.547619 1.000000
vt 0.523810 0.545455
vt 0.476191 0.818182
vt 0.476191 0.727273
vt 0.476191 0.636364
vt 0.500000 1.000000
vt 0.476191 0.909091
vt 0.476191 0.545455
vt 0.428571 0.727273
vt 0.428571 0.636364
vt 0.452381 1.000000
vt 0.428571 0.909091
vt 0.428571 0.545455
vt 0.428571 0.818182
vt 0.404762 1.000000
vt 0.380952 0.909091
vt 0.380952 0.636364
vt 0.380952 0.545455
vt 0.380952 0.818182
vt 0.380952 0.727273
vt 0.333333 0.636364
vt 0.333333 0.545455
vt 0.333333 0.909091
vt 0.333333 0.818182
vt 0.333333 0.727273
vt 0.357143 1.000000
vt 0.285714 0.818182
vt 0.285714 0.727273
vt 0.285714 0.636364
vt 0.309524 1.000000
vt 0.285714 0.909091
vt 0.285714 0.545455
vt 0.238095 0.727273
vt 0.238095 0.636364
vt 0.261905 1.000000
vt 0.238095 0.909091
vt 0.238095 0.545455
vt 0.238095 0.818182
vt 0.190476 0.727273
vt 0.190476 0.636364
vt 0.214286 1.000000
vt 0.190476 0.909091
vt 0.190476 0.545455
vt 0.190476 0.818182
vt 0.142857 0.636364
vt 0.142857 0.545455
vt 0.142857 0.909091
vt 0.142857 0.818182
vt 0.142857 0.727273
vt 0.166667 1.000000
vt 0.095238 0.818182
vt 0.095238 0.727273
vt 0.095238 0.636364
vt 0.119048 1.000000
vt 0.095238 0.909091
vt 0.095238 0.545455
vt 0.047619 0.818182
vt 0.047619 0.727273
vt 0.047619 0.636364
vt 0.071429 1.000000
vt 0.047619 0.909091
vt 0.047619 0.545455
vt 0.000000 0.727273
vt 0.000000 0.636364
vt 0.023810 1.000000
vt 0.000000 0.909091
vt 0.000000 0.545455
vt 0.000000 0.818182
vt 1.000000 0.545455
vt 1.000000 0.636364
vt 0.952381 0.636364
vt 0.952381 0.545455
vt 1.000000 0.818182
vt 1.000000 0.909091
vt 0.952381 0.909091
vt 0.952381 0.818182
vt 1.000000 0.727273
vt 0.952381 0.727273
vt 0.976191 1.000000
vt 0.904762 0.909091
vt 0.904762 0.818182
vt 0.904762 0.727273
vt 0.904762 0.636364
vt 0.928571 1.000000
vt 0.904762 0.545455
vt 0.857143 0.818182
vt 0.857143 0.727273
vt 0.857143 0.636364
vt 0.880952 1.000000
vt 0.857143 0.909091
vt 0.857143 0.545455
vt 0.809524 0.727273
vt 0.809524 0.636364
vt 0.833333 1.000000
vt 0.809524 0.909091
vt 0.809524 0.545455
vt 0.809524 0.818182
vt 0.785714 1.000000
vt 0.761905 0.909091
vt 0.761905 0.636364
vt 0.761905 0.545455
vt 0.761905 0.818182
vt 0.761905 0.727273
vt 0.738095 1.000000
vt 0.375000 0.333333
vt 0.500000 0.333333
vt 0.500000 0.666667
vt 0.375000 0.666667
vt 0.375000 0.000000
vt 0.500000 0.000000
vt 0.500000 1.000000
vt 0.375000 1.000000
vt 0.250000 0.333333
vt 0.250000 0.666667
vt 0.250000 0.000000
vt 0.250000 1.000000
vt 0.125000 0.333333
vt 0.125000 0.666667
vt 0.125000 0.000000
vt 0.125000 1.000000
vt 0.000000 0.333333
vt 0.000000 0.666667
vt 0.000000 0.000000
vt 0.000000 1.000000
vt 0.875000 0.333333
vt 1.000000 0.333333
vt 1.000000 0.666667
vt 0.875000 0.666667
vt 0.875000 0.000000
vt 1.000000 0.000000
vt 1.000000 1.000000
vt 0.875000 1.000000
vt 0.750000 0.333333
vt 0.750000 0.666667
vt 0.750000 0.000000
vt 0.750000 1.000000
vt 0.625000 0.333333
vt 0.625000 0.666667
vt 0.625000 0.000000
vt 0.625000 1.000000
s 0
f 1/1/1 5/2/1 6/3/1
f 4/4/2 3/5/2 9/6/2 10/7/2
f 106/8/3 1/1/3 6/3/3 7/9/3
f 2/10/4 106/8/4 7/9/4 8/11/4
f 3/5/5 2/10/5 8/11/5 9/6/5
f 9/6/6 8/11/6 13/12/6 14/13/6
f 6/3/7 5/14/7 11/15/7
f 10/7/8 9/6/8 14/13/8 15/16/8
f 7/9/9 6/3/9 11/15/9 12/17/9
f 8/11/10 7/9/10 12/17/10 13/12/10
f 11/15/11 5/18/11 16/19/11
f 15/16/12 14/13/12 19/20/12 20/21/12
f 12/17/13 11/15/13 16/19/13 17/22/13
f 13/12/14 12/17/14 17/22/14 18/23/14
f 14/13/15 13/12/15 18/23/15 19/20/15
f 17/22/16 16/19/16 21/24/16 22/25/16
f 18/23/17 17/22/17 22/25/17 23/26/17
f 19/20/18 18/23/18 23/26/18 24/27/18
f 16/19/19 5/28/19 21/24/19
f 20/21/20 19/20/20 24/27/20 25/29/20
f 23/26/21 22/25/21 27/30/21 28/31/21
f 24/27/22 23/26/22 28/31/22 29/32/22
f 21/24/23 5/33/23 26/34/23
f 25/29/24 24/27/24 29/32/24 30/35/24
f 22/25/25 21/24/25 26/34/25 27/30/25
f 29/32/26 28/31/26 33/36/26 34/37/26
f 26/34/27 5/38/27 31/39/27
f 30/35/28 29/32/28 34/37/28 35/40/28
f 27/30/29 26/34/29 31/39/29 32/41/29
f 28/31/30 27/30/30 32/41/30 33/36/30
f 31/39/31 5/42/31 36/43/31
f 35/40/32 34/37/32 39/44/32 40/45/32
f 32/41/33 31/39/33 36/43/33 37/46/33
f 33/36/34 32/41/34 37/46/34 38/47/34
f 34/37/35 33/36/35 38/47/35 39/44/35
f 40/45/36 39/44/36 44/48/36 45/49/36
f 37/46/37 36/43/37 41/50/37 42/51/37
f 38/47/38 37/46/38 42/51/38 43/52/38
f 39/44/39 38/47/39 43/52/39 44/48/39
f 36/43/40 5/53/40 41/50/40
f 43/52/41 42/51/41 47/54/41 48/55/41
f 44/48/42 43/52/42 48/55/42 49/56/42
f 41/50/43 5/57/43 46/58/43
f 45/49/44 44/48/44 49/56/44 50/59/44
f 42/51/45 41/50/45 46/58/45 47/54/45
f 49/56/46 48/55/46 53/60/46 54/61/46
f 46/58/47 5/62/47 51/63/47
f 50/59/48 49/56/48 54/61/48 55/64/48
f 47/54/49 46/58/49 51/63/49 52/65/49
f 48/55/50 47/54/50 52/65/50 53/60/50
f 54/61/51 53/60/51 58/66/51 59/67/51
f 51/63/52 5/68/52 56/69/52
f 55/64/53 54/61/53 59/67/53 60/70/53
f 52/65/54 51/63/54 56/69/54 57/71/54
f 53/60/55 52/65/55 57/71/55 58/66/55
f 60/70/56 59/67/56 64/72/56 65/73/56
f 57/71/57 56/69/57 61/74/57 62/75/57
f 58/66/58 57/71/58 62/75/58 63/76/58
f 59/67/59 58/66/59 63/76/59 64/72/59
f 56/69/60 5/77/60 61/74/60
f 63/76/61 62/75/61 67/78/61 68/79/61
f 64/72/62 63/76/62 68/79/62 69/80/62
f 61/74/63 5/81/63 66/82/63
f 65/73/64 64/72/64 69/80/64 70/83/64
f 62/75/65 61/74/65 66/82/65 67/78/65
f 68/79/66 67/78/66 72/84/66 73/85/66
f 69/80/67 68/79/67 73/85/67 74/86/67
f 66/82/68 5/87/68 71/88/68
f 70/83/69 69/80/69 74/86/69 75/89/69
f 67/78/70 66/82/70 71/88/70 72/84/70
f 74/86/71 73/85/71 78/90/71 79/91/71
f 71/88/72 5/92/72 76/93/72
f 75/89/73 74/86/73 79/91/73 80/94/73
f 72/84/74 71/88/74 76/93/74 77/95/74
f 73/85/75 72/84/75 77/95/75 78/90/75
f 80/96/76 79/97/76 84/98/76 85/99/76
f 77/100/77 76/101/77 81/102/77 82/103/77
f 78/104/78 77/100/78 82/103/78 83/105/78
f 79/97/79 78/104/79 83/105/79 84/98/79
f 76/101/80 5/106/80 81/102/80
f 82/103/81 81/102/81 86/107/81 87/108/81
f 83/105/82 82/103/82 87/108/82 88/109/82
f 84/98/83 83/105/83 88/109/83 89/110/83
f 81/102/84 5/111/84 86/107/84
f 85/99/85 84/98/85 89/110/85 90/112/85
f 88/109/86 87/108/86 92/113/86 93/114/86
f 89/110/87 88/109/87 93/114/87 94/115/87
f 86/107/88 5/116/88 91/117/88
f 90/112/89 89/110/89 94/115/89 95/118/89
f 87/108/90 86/107/90 91/117/90 92/113/90
f 94/115/91 93/114/91 98/119/91 99/120/91
f 91/117/92 5/121/92 96/122/92
f 95/118/93 94/115/93 99/120/93 100/123/93
f 92/113/94 91/117/94 96/122/94 97/124/94
f 93/114/95 92/113/95 97/124/95 98/119/95
f 96/122/96 5/125/96 101/126/96
f 100/123/97 99/120/97 104/127/97 105/128/97
f 97/124/98 96/122/98 101/126/98 102/129/98
f 98/119/99 97/124/99 102/129/99 103/130/99
f 99/120/100 98/119/100 103/130/100 104/127/100
f 102/129/101 101/126/101 1/1/101 106/8/101
f 103/130/102 102/129/102 106/8/102 2/10/102
f 104/127/103 103/130/103 2/10/103 3/5/103
f 101/126/104 5/131/104 1/1/104
f 105/128/105 104/127/105 3/5/105 4/4/105
f 107/132/106 128/133/106 130/134/106 109/135/106
f 108/136/107 129/137/107 128/133/107 107/132/107
f 109/135/108 130/134/108 129/138/108 108/139/108
f 110/140/109 107/132/109 109/135/109 112/141/109
f 111/142/110 108/136/110 107/132/110 110/140/110
f 112/141/111 109/135/111 108/139/111 111/143/111
f 113/144/112 110/140/112 112/141/112 115/145/112
f 114/146/113 111/142/113 110/140/113 113/144/113
f 115/145/114 112/141/114 111/143/114 114/147/114
f 116/148/115 113/144/115 115/145/115 118/149/115
f 117/150/116 114/146/116 113/144/116 116/148/116
f 118/149/117 115/145/117 114/147/117 117/151/117
f 119/152/118 116/153/118 118/154/118 121/155/118
f 120/156/119 117/157/119 116/153/119 119/152/119
f 121/155/120 118/154/120 117/158/120 120/159/120
f 122/160/121 119/152/121 121/155/121 124/161/121
f 123/162/122 120/156/122 119/152/122 122/160/122
f 124/161/123 121/155/123 120/159/123 123/163/123
f 125/164/124 122/160/124 124/161/124 127/165/124
f 126/166/125 123/162/125 122/160/125 125/164/125
f 127/165/126 124/161/126 123/163/126 126/167/126
f 128/133/127 125/164/127 127/165/127 130/134/127
f 129/137/128 126/166/128 125/164/128 128/133/128
f 130/134/129 127/165/129 126/167/129 129/138/129
